<svg xmlns="http://www.w3.org/2000/svg" viewBox="0 0 256 256" fill="none">
  <path fill="#0F3D3F" d="M114.2 6.4a20 20 0 0 1 27.6 0l107.8 107.8a20 20 0 0 1 0 27.6L141.8 249.6a20 20 0 0 1-27.6 0L6.4 141.8a20 20 0 0 1 0-27.6L114.2 6.4Z"/>
  <path fill="#E7F0EA" fill-opacity="0.12" d="M128 24.9 24.9 128 128 231.1 231.1 128 128 24.9Z"/>
  <path fill="#0F3D3F" fill-rule="evenodd" d="M154.7 79a12 12 0 0 0-17 0l-58 58a12 12 0 0 0 0 17l54 54a12 12 0 0 0 17 0l45.4-45.4a12 12 0 0 0 0-17l-38.6-38.6-28.3 28.3-20.3-20.3 36.7-36.7a12 12 0 0 1 17 0l57 57a28 28 0 0 1 0 39.6l-57 57c-23.5 23.5-61.6 23.5-85.1 0l-54-54c-23.5-23.5-23.5-61.6 0-85.1l81-81a44 44 0 0 1 62.2 0l86.8 86.8a12 12 0 0 1-17 17l-86.9-86.9Z" clip-rule="evenodd"/>
</svg>
