<?xml version="1.0" encoding="UTF-8"?><svg id="Layer_2" xmlns="http://www.w3.org/2000/svg" viewBox="0 0 961.7354 329.4569"><g id="Components"><g id="_5fd6f715-e279-495a-a826-94b02e9b5d57_5"><path d="M237.7712,277.9451c-16.2576-5.6556-32.7189-16.6953-39.0477-21.8062-1.8678-1.508-4.5362-1.4968-6.3867.0319-3.8345,3.1678-6.699,7.7416-8.1966,12.3575,2.9023,4.2193,7.251,6.8258,11.6389,9.2553-21.19,17.9593-73.6473-12.3068-87.6174-30.8633-3.1907-4.2382-6.9076-11.1113-13.8993,3.5425-.9987,2.0924-2.5598,4.3372-1.6726,6.7093l8.2014,10.3422c-2.4919.5685-5.9902.9504-10.0299.9312,0,0-11.2768-29.5935-18.7689-40.2413-9.3359-13.2676-33.058-32.8724-46.6986-13.9885-3.2945,4.5608-11.1415,16.9256-7.6786,24.9406,4.6663,10.8002,12.54,19.0865,19.3122,25.459,18.6369,17.5368,40.7854,20.5783,41.884,21.6235.8255.7848,15.7532,38.8197,48.8322,38.8197,13.7793,0,17.0523-15.1737,19.9196-23.509-25.9251,20.2705-50.3461-16.9656-50.1055-18.7545,4.6314-1.9278,8.7342-5.0503,10.6928-9.0051,3.9421,3.6077,52.7146,53.9031,91.5552,5.9542,8.3592,5.8198,19.295,9.937,28.903,13.1748,31.1907,10.5111,61.3287-9.3386,77.4387-33.3034-16.6959,16.936-44.941,26.4474-68.2765,18.3295ZM44.8428,246.1586c-6.9525-6.627-16.2004-17.827-15.3591-24.0799,5.0159-1.1364,13.7616,4.2956,22.7593,13.6909,9.8587,10.2949,15.8551,19.3269,19.4131,28.003,0,0-15.7958-7.1118-26.8133-17.614Z" style="fill:#fff;"/><path d="M300.5114,59.5533c-20.5328-27.5475-59.0635-49.3168-62.778-49.3168-2.921,0-4.0985,13.4894-4.4032,16.1397-.7304,6.3504,29.0766,12.8584,60.1856,48.9735,40.6103,50.7164,39.0482,86.4275,42.2045,99.2008,5.1675-55.3439-23.67-99.5166-35.2089-114.9971Z" style="fill:#fff;"/><path d="M303.7806,221.5729c-22.81-18.7191-59.9742-62.2647-93.7453-40.3368-.8915.579-4.077,3.5873-4.2942,4.6511,7.3973.0341,18.391.777,25.4808,3.7991,19.217,8.1916,35.978,26.6218,50.6263,38.8801-18.7139-4.4541-43.0869-13.6934-68.1401-28.0104-33.7214-19.2701-31.2634-31.033-33.9414-29.9671-2.115.8419-4.717,9.134-5.3168,9.0384-12.1449-3.8446-58.4518-22.1521-77.169-36.3762-3.4887-3.3519-7.7192-15.5594-12.32,6.7659-1.6257,7.8887,10.0375,12.4911,11.7728,16.1356,3.1295,6.5712,8.9016,21.0255,16.4061,33.2595C16.112,157.6681,21.9343,118.9471,21.9343,104.7161c0-30.8739,39.8297-42.7055,46.1217-42.7055,0,2.1844-7.0726,67.9802,84.7485,84.6516,91.1601,16.5514,117.5999,26.9644,126.7402,31.5658,9.7898,5.2496,20.0454,14.2744,28.0411,21.95,1.8941-3.6223,12.9925-17.6465,12.065-22.2076-6.3044-5.1589-24.4391-14.6677-29.3852-16.9475-13.9601-8.4301-34.4408-22.1731-64.5333-46.0653,27.8675,6.6427,78.7928,22.732,78.7914,22.7319,3.8847-1.3475,6.1633-17.9084,4.1105-20.7329-11.5566-7.0573-73.1259-53.3511-97.5081-81.8539C207.6581,31.0485,197.4646,18.8356,200.8075,0c-.9193-.0304-11.1477,14.8758-6.5398,32.4331,4.6194,17.6037,21.5377,32.3055,36.4075,45.6189,2.9042,2.6,21.4124,19.0856,21.4129,19.086l1.422,1.3755c-35.1357-8.2741-84.8418-32.2817-85.3933-32.3496-5.8242-.7163-6.1284,20.937-3.7015,22.5823.716.4852,63.9469,52.242,63.9464,52.2418-1.5286.1709-53.7874-9.9735-72.3645-13.4469-54.0686-10.1094-80.6773-40.9609-80.6773-66.2155,10.2303,0,64.5108,4.4287,64.5108,48.3374,1.2933-3.4036,10.259-39.8194-20.4539-57.6113-18.8636-10.9275-36.6677-8.0671-38.9669-8.848,8.1464-13.0937,29.5138-21.4935,45.2058-21.4935,35.2012,0,45.962,20.7451,45.962,33.5567,3.0625-6.8682,3.3294-52.7216-45.4928-52.7216-42.7411,0-54.2824,40.6566-54.6665,40.9436-2.6349.3048-55.8675,5.5558-55.4949,69.4344.3559,61.006,41.9012,78.2635,91.239,104.6866,8.065,4.3195,49.984,29.2417,52.4668,26.6502,2.1064-2.1983,5.7735-15.0604,4.5046-17.8417-3.4394-1.7843-8.8786-3.4734-12.1679-5.7716-9.9357-6.942-20.3487-22.7851-28.7371-40.385,10.1236,4.7909,27.9254,11.5196,46.0361,17.7845-.6926,1.9157-1.1785,3.8866-1.4459,4.8599-5.6229,20.4801,5.9907,31.104,11.8288,36.2223,8.5725,7.5155,22.6039,14.6663,28.5807,9.8979,10.4986-8.375,11.725-18.1401,11.9369-26.0091,3.8694,3.1479,60.0096,28.586,87.0358,22.8,8.0493-1.3402,13.9462-12.1077,17.2723-20.8041,0,0-10.3298,5.0642-20.6931-3.4403ZM210.051,234.531c-1.0307,2.0825-14.5675-5.9008-23.0778-12.8467-4.6553-3.8-11.1864-12.4009-13.1632-21.5063,3.3404,1.0798,10.0533,4.8194,18.1227,11.2574,9.7204,7.7556,19.3438,21.707,18.1184,23.0955Z" style="fill:#fff;"/><path d="M17.2164,179.2742c1.3215-2.4751,8.8413-14.3855,8.8059-15.878-.0526-2.2149-14.2284-11.9499-16.6998-12.4972C8.1168,150.6321-.0779,166.5592.0006,168.6321c2.4647,1.5786,16.0158,11.0307,17.2158,10.6421Z" style="fill:#fff;"/><path d="M24.6965,209.8936c1.3215-2.4751,8.8413-14.3855,8.8059-15.878-.0526-2.2149-14.2284-11.9499-16.6998-12.4972-1.2058-.2669-9.4005,15.6602-9.322,17.7331,2.4647,1.5786,16.0158,11.0307,17.2158,10.6421Z" style="fill:#fff;"/><path d="M168.4636,301.07c-1.2058-.2669-9.4009,15.6602-9.3225,17.7331,2.4647,1.5786,16.0163,11.0307,17.2158,10.6421,1.3215-2.4751,8.8418-14.3855,8.8059-15.878-.0526-2.2149-14.2284-11.9499-16.6993-12.4972Z" style="fill:#fff;"/><path d="M195.2162,297.8047c-1.2053-.267-9.4005,15.6601-9.322,17.733,2.4647,1.5787,16.0158,11.0309,17.2158,10.6422,1.3215-2.4752,8.8413-14.3855,8.8059-15.878-.0526-2.215-14.2284-11.95-16.6998-12.4972Z" style="fill:#fff;"/><path d="M250.911,273.9735c1.3215-2.4749,8.8418-14.3855,8.8059-15.878-.0526-2.2148-14.2284-11.9498-16.6993-12.4971-1.2058-.267-9.4009,15.6601-9.3225,17.733,2.4647,1.5786,16.0163,11.0307,17.2158,10.6421Z" style="fill:#fff;"/><path d="M408.0934,160.7181h5.516l24.1735,57.4325h-6.0027l-6.2467-15.2508h-30.4202l-6.4894,15.2508h-5.5974l25.0668-57.4325ZM410.6081,166.5582l-13.3854,31.4749h26.3642l-12.9788-31.4749Z" style="fill:#fff;"/><path d="M443.7044,160.7181h5.3547v52.5657h26.7695v4.8667h-32.1242v-57.4325Z" style="fill:#fff;"/><path d="M477.5313,196.7344h20.0362v4.3813h-20.0362v-4.3813Z" style="fill:#fff;"/><path d="M506.0049,160.7181h8.0307l20.9282,48.1844,20.9295-48.1844h7.6254v57.4325h-5.3547v-50.6191h-.1614l-21.9028,50.6191h-2.352l-22.2268-50.6191h-.1626v50.6191h-5.3534v-57.4325Z" style="fill:#fff;"/><path d="M593.9389,160.7181h5.516l24.1735,57.4325h-6.0027l-6.2467-15.2508h-30.4202l-6.4894,15.2508h-5.5974l25.0668-57.4325ZM596.4536,166.5582l-13.3854,31.4749h26.3642l-12.9788-31.4749Z" style="fill:#fff;"/><path d="M628.8192,160.7181c7.734.3041,23.6832-1.0002,30.4202,1.8248,11.8905,3.5112,18.5117,15.5095,18.4132,26.8917.0935,11.3835-6.5197,23.3791-18.4135,26.8908-6.6958,2.7715-22.7606,1.5948-30.4199,1.8251v-57.4325ZM634.1726,213.2838h11.0321c14.6536.3429,27.5261-8.0135,27.0945-23.8498.4323-15.8327-12.4439-24.196-27.0948-23.8489.0003-.0003-11.0318-.0003-11.0318-.0003v47.699Z" style="fill:#fff;"/><path d="M687.3064,160.7181c7.6362.3097,19.7478-1.0979,27.0135,1.8652,7.7948,2.5274,10.5581,13.1897,7.0978,20.0366-2.4834,5.1051-8.0714,7.2813-13.2632,7.9504l16.7108,27.5802h-6.084l-16.1428-27.2562h-9.9774v27.2562h-5.3547v-57.4325ZM692.661,186.0276h11.3561c6.8837.2933,13.5493-3.2031,13.4666-10.2217.0793-7.0176-6.5797-10.5124-13.4667-10.2209,0-.0003-11.3561-.0003-11.3561-.0003v20.4428Z" style="fill:#fff;"/><path d="M750.6615,160.7181h5.516l24.1735,57.4325h-6.0027l-6.2467-15.2508h-30.4202l-6.4894,15.2508h-5.5974l25.0668-57.4325ZM753.1762,166.5582l-13.3854,31.4749h26.3642l-12.9788-31.4749Z" style="fill:#fff;"/><path d="M787.8126,207.5238c4.7068,9.1156,20.2369,9.988,25.0263.6087,2.1738-4.445.8997-10.4703-3.6104-12.8173-10.0166-5.3489-25.344-5.0253-24.985-20.3213-.2628-16.9424,25.311-20.9952,34.0706-8.5171l-4.624,3.3267c-4.2593-6.6107-14.1432-7.3368-20.2396-2.9607-4.4317,2.9746-5.1432,11.1159-1.6618,14.763,3.2237,3.4285,7.9796,4.6756,12.614,6.0027,4.9144,1.3754,9.6247,3.2196,12.6141,7.4639,5.2567,8.2954,1.034,20.7246-8.9242,23.4833-9.0969,2.6406-19.7223.4414-25.3907-7.6251l5.1107-3.4067Z" style="fill:#fff;"/><path d="M846.6263,160.7181h5.516l24.1735,57.4325h-6.0027l-6.2467-15.2508h-30.4202l-6.4894,15.2508h-5.5974l25.0668-57.4325ZM849.1409,166.5582l-13.3854,31.4749h26.3642l-12.9788-31.4749Z" style="fill:#fff;"/><path d="M889.4573,165.5848h-19.6308v-4.8667h44.6163v4.8667h-19.6308v52.5657h-5.3547v-52.5657Z" style="fill:#fff;"/><path d="M961.7339,196.1677c.1799,21.9799-16.0488,23.5063-20.9282,23.4856-16.4437-.0697-20.8459-12.4841-20.9295-23.4856v-35.4496h5.3534v34.0696c-.2737,9.639,3.9666,20.4804,15.5751,19.9558,11.6048.5242,15.8508-10.318,15.5742-19.9561.0003.0003.0003-34.0694.0003-34.0694h5.3547v35.4496Z" style="fill:#fff;"/><path d="M393.6949,56.8158c6.8506.2999,6.912-11.523,0-11.1915-6.987-.3245-6.9616,11.4722,0,11.1915Z" style="fill:#fff;"/><path d="M406.9067,56.8158c6.8134.2933,6.9014-11.5633,0-11.1915-6.9868-.3245-6.9616,11.4722,0,11.1915Z" style="fill:#fff;"/><path d="M447.5528,114.4815c-6.9486-.3252-6.9486,11.5163-.0002,11.1915,6.8173.2917,6.881-11.517.0002-11.1915Z" style="fill:#fff;"/><path d="M434.3408,114.4815c-6.9484-.3252-6.9484,11.5163,0,11.1915,6.8508.2982,6.9116-11.5247,0-11.1915Z" style="fill:#fff;"/><path d="M467.0594,98.9377h-18.3412v-29.1428h-11.5798v29.1428h-18.7295v-29.1428h-11.6573c-8.4132-.3377-17.2029,1.8435-21.9164,8.8208-3.8662,5.3362-3.9162,15.351-.2718,20.8665,4.2717,6.6093,11.7477,8.7448,20.0116,8.782h74.0642v-38.4692h-11.5798v29.1428ZM406.829,98.9377c-7.1573.409-13.0376-1.8325-13.0566-9.6359-.0558-7.996,5.7138-10.6188,13.0566-10.1815v19.8174Z" style="fill:#fff;"/><path d="M469.1574,60.0016c6.8138.2952,6.9008-11.5632.0002-11.1906-7.0254-.3758-6.9376,11.4908-.0002,11.1906Z" style="fill:#fff;"/><path d="M600.4963,108.2641v-9.3264c-7.565-8.7969-2.3964-24.839-15.9319-28.9875-7.6072-2.0439-16.7236-.7983-23.5476,2.7976l3.4963,8.5492c4.5315-2.5706,10.1859-4.0594,14.922-2.0602,3.1074,1.7225,3.8827,4.7334,4.741,8.5881.9837,4.2964,1.9591,8.375,4.6629,11.0352h-30.6001c-2.6577-.1949-5.2676-.8364-6.9672-2.7199,1.4677-3.6246,1.6256-6.5026,1.6256-10.3111,0-9.635-7.8362-16.5336-17.2556-16.5336-7.6806,0-19.7525,3.5018-19.7525,16.4434,0,.0491-.3958,7.6891,1.9178,13.1989h-15.4661v-49.7386h-11.5796v59.065h41.889c5.2492.0065,10.7451-1.7417,14.6889-5.207,2.9561,3.2032,5.9589,4.5889,9.8431,5.0347.0587.1114.1676.1724.3373.1724h2.6424c.1075.001.2379.0085.3617,0h39.9728ZM529.0312,98.9426s-3.0687-2.0441-3.0687-9.7024c0-5.2301,3.2533-9.9994,9.0945-9.9994,5.068,0,7.4208,4.5798,7.4208,9.8007,0,5.1886-3.8912,9.9011-13.4466,9.9011Z" style="fill:#fff;"/><path d="M647.5148,98.9377h-16.7869v-29.1428h-11.5796s0,39.169,0,39.1688c.0072,8.7039-8.0255,10.3807-14.2997,6.0622l-4.6637,7.538c4.7689,3.2448,8.7176,4.3045,14.3005,4.3521,10.7003.2158,16.8392-8.4216,16.2425-18.6518h28.3667v-59.065h-11.5798v49.7386Z" style="fill:#fff;"/><rect x="672.384" y="49.1991" width="11.5798" height="59.065" style="fill:#fff;"/><path d="M742.0176,57.5154c4.6922.2968,4.6497-7.9545,0-7.6943-4.8844-.2643-4.934,7.9962,0,7.6943Z" style="fill:#fff;"/><path d="M730.2826,57.5154c4.8625.3055,4.7522-7.9296,0-7.6943-2.1646.0513-3.6544,1.4066-3.5748,3.8854-.08,2.4984,1.4171,3.7561,3.5748,3.8089Z" style="fill:#fff;"/><path d="M809.553,103.6014c-6.1397.1057-11.4523.3476-14.9218-5.6739.3001-.9243.1025-19.523.1554-21.0604h-5.051v17.9522c0,2.6424-.7384,4.7673-2.2154,6.3726-1.477,1.6064-3.4853,2.4095-6.0231,2.4095h-8.7823v-26.7343h-5.0508v26.7343h-17.0973v-32.7964h-11.0363c-6.7382,0-20.8682,2.8801-20.8682,19.1674,0,5.9249,1.9071,18.2819,18.7702,18.2917h44.2986c4.629.0402,8.5649-1.75,10.9576-5.3623,3.4335,4.0099,7.4764,5.2987,12.4346,5.3623h9.4041v-37.4591l-4.9743.0776v32.7188ZM745.515,103.6014h-8.1602c-8.4409.0389-13.4832-4.5816-13.4448-13.0566-.0399-9.6502,6.0752-15.1609,15.7757-15.077h5.8293v28.1336Z" style="fill:#fff;"/><path d="M830.9239,111.2946c.155,8.9191-5.1711,13.4708-13.2893,9.637l-1.7099,4.0418c2.3954,1.1797,4.6879,1.945,7.3053,1.9427,9.1274.2246,12.8454-7.6119,12.6675-16.0096v-40.1015h-4.9733s0,40.4897-.0002,40.4896Z" style="fill:#fff;"/><path d="M937.7222,103.6014h-10.8026c-.0701,0-.129.0091-.1802.0244-.1724-.0401-.3964-.0219-.5365-.0243-4.6214-.0602-7.2586-.9451-9.792-4.6638,3.2448-8.0456,2.7965-20.0774-5.207-25.0245-2.7881-1.579-6.0037-2.1944-9.2115-2.0174-8.942.4938-15.258,8.2971-15.258,17.3443,0,4.8044,1.4448,9.6595,3.1749,14.3613h-14.9982c-1.7258-14.86-7.9492-29.5255-20.9837-36.9934l-1.9428,4.5075c7.1899,4.9837,11.8942,11.5721,14.9218,19.7398,1.6099,4.0263,2.4012,8.4102,3.0305,12.7461h-25.8018v4.6627h57.7424c4.6404-.0135,8.7996-1.5886,11.8913-5.1293,3.7112,4.0492,7.3575,5.1474,12.8204,5.1293.0527-.0001.1033-.0113.1496-.0308.0515.0192.1106.0308.181.0308h16.0873v-59.065h-5.2847v54.4023ZM908.0167,101.8526c-1.6062,1.1655-3.6017,1.7488-5.983,1.7488h-6.762c-2.2251-5.4901-3.2373-8.7618-3.2642-14.3613,0-.024.0004.0242.0004,0,0-6.3634,5.0857-12.7289,11.6065-12.7289,5.2285,0,9.3752,5.2401,9.3752,12.729,0,5.4307-1.0135,9.5638-4.9729,12.6124Z" style="fill:#fff;"/><rect x="956.5284" y="49.1991" width="5.207" height="59.065" style="fill:#fff;"/><rect x="381.8814" y="140.9258" width="579.854" height="4.2728" style="fill:#fff;"/><path d="M402.9171,237.8203l-19.8905,46.0209h11.1808l3.8348-9.7504h17.8755l3.9649,9.7504h11.4407l-20.0212-46.0209h-8.3849ZM401.2272,265.5105l5.59-14.3,5.6552,14.3h-11.2451Z" style="fill:#fff;"/><path d="M464.0514,240.7771c-3.4412-2.319-7.9126-2.9227-12.188-2.9568h-17.8103v46.0209h10.1401v-18.3959h5.0056l9.62,18.3959h12.1554l-11.7003-19.4357c11.166-1.3598,13.2909-17.9473,4.7774-23.6284ZM450.1743,256.8657h-5.9811v-10.4652c4.603.3547,14.4808-1.8068,14.4965,5.3292.2206,4.772-4.9621,5.2504-8.5153,5.136Z" style="fill:#fff;"/><rect x="471.2339" y="263.756" width="15.9899" height="7.7997" style="fill:#fff;"/><path d="M547.0264,237.8203l-19.2935,44.6388-10.8678-18.0536c11.1657-1.3598,13.2909-17.9473,4.7774-23.6284-3.4415-2.319-7.9129-2.9227-12.188-2.9568h-17.8106v46.0209h10.1404v-18.3959h5.0056l9.62,18.3959h21.9065l3.8348-9.7504h17.8755l3.9649,9.7504h11.4407l-20.0209-46.0209h-8.3849ZM507.7651,256.8657h-5.9808v-10.4652c4.603.3547,14.4805-1.8068,14.4962,5.3292.2206,4.772-4.9621,5.2504-8.5153,5.136ZM545.3362,265.5105l5.59-14.3,5.6552,14.3h-11.2451Z" style="fill:#fff;"/><polygon points="607.9978 254.9802 588.3013 254.9802 588.3013 237.8203 578.1612 237.8203 578.1612 283.8412 588.3013 283.8412 588.3013 263.9507 607.9978 263.9507 607.9978 283.8412 618.1382 283.8412 618.1382 237.8203 607.9978 237.8203 607.9978 254.9802" style="fill:#fff;"/><polygon points="651.6779 267.8513 651.5475 267.8513 640.9532 237.8203 625.6116 237.8203 625.6116 283.8412 635.752 283.8412 635.752 248.5451 635.8824 248.5451 647.5174 283.8412 655.2528 283.8412 667.3431 248.5451 667.4732 248.5451 667.4732 283.8412 677.6136 283.8412 677.6136 237.8203 662.3384 237.8203 651.6779 267.8513" style="fill:#fff;"/><path d="M700.233,237.8203l-19.8905,46.0209h11.1808l3.8348-9.7504h17.8755l3.9649,9.7504h11.4407l-20.0212-46.0209h-8.3849ZM698.543,265.5105l5.59-14.3,5.6552,14.3h-11.2451Z" style="fill:#fff;"/><polygon points="764.8444 269.8011 764.714 269.8011 745.1483 237.8203 731.3681 237.8203 731.3681 283.8412 741.5082 283.8412 741.5082 251.0805 741.6385 251.0805 761.7238 283.8412 774.9848 283.8412 774.9848 237.8203 764.8444 237.8203 764.8444 269.8011" style="fill:#fff;"/><rect x="782.3291" y="237.8203" width="10.1404" height="46.0209" style="fill:#fff;"/><polygon points="866.7652 237.8203 856.4304 255.0454 846.68 237.8203 838.5558 237.8203 834.0694 237.8203 826.5296 237.8203 816.1948 255.0454 806.4444 237.8203 793.834 237.8203 811.1252 264.2111 811.1252 283.8412 821.2644 283.8412 821.2644 264.2111 836.3126 241.2437 851.3608 264.2111 851.3608 283.8412 861.5 283.8412 861.5 264.2111 878.7912 237.8203 866.7652 237.8203" style="fill:#fff;"/><path d="M890.6228,237.8203l-19.8908,46.0209h11.1811l3.8345-9.7504h17.8758l3.9649,9.7504h11.4407l-20.0212-46.0209h-8.3849ZM888.9325,265.5105l5.59-14.3,5.6552,14.3h-11.2451Z" style="fill:#fff;"/><polygon points="951.595 237.8203 951.595 254.9802 931.8991 254.9802 931.8991 237.8203 921.7587 237.8203 921.7587 283.8412 931.8991 283.8412 931.8991 263.9507 951.595 263.9507 951.595 283.8412 961.7354 283.8412 961.7354 237.8203 951.595 237.8203" style="fill:#fff;"/></g></g></svg>